<svg xmlns="http://www.w3.org/2000/svg" xmlns:xlink="http://www.w3.org/1999/xlink" width="1300" zoomAndPan="magnify" viewBox="0 0 974.88 449.999984" height="600" preserveAspectRatio="xMidYMid meet" version="1.0"><defs><g/><clipPath id="fae07d76fd"><path d="M 0 0.0273438 L 974.761719 0.0273438 L 974.761719 449.972656 L 0 449.972656 Z M 0 0.0273438 " clip-rule="nonzero"/></clipPath><clipPath id="8384439523"><path d="M 88.726562 45.023438 L 448.773438 45.023438 L 448.773438 405.070312 L 88.726562 405.070312 Z M 88.726562 45.023438 " clip-rule="nonzero"/></clipPath></defs><g clip-path="url(#fae07d76fd)"><path fill="#ffffff" d="M 0 0.0273438 L 974.878906 0.0273438 L 974.878906 457.472656 L 0 457.472656 Z M 0 0.0273438 " fill-opacity="1" fill-rule="nonzero"/><path fill="#ffffff" d="M 0 0.0273438 L 974.878906 0.0273438 L 974.878906 449.972656 L 0 449.972656 Z M 0 0.0273438 " fill-opacity="1" fill-rule="nonzero"/><path fill="#feffff" d="M 0 0.0273438 L 974.878906 0.0273438 L 974.878906 449.972656 L 0 449.972656 Z M 0 0.0273438 " fill-opacity="1" fill-rule="nonzero"/></g><g clip-path="url(#8384439523)"><path fill="#607bcd" d="M 302.800781 73.539062 L 327.59375 94.789062 L 319.414062 115.234375 L 294.984375 105.457031 C 293.449219 104.84375 291.730469 104.890625 290.230469 105.585938 C 288.730469 106.285156 287.582031 107.566406 287.0625 109.132812 L 281.058594 127.132812 C 280.117188 129.96875 281.398438 133.066406 284.070312 134.402344 L 292.753906 138.742188 L 292.753906 159.039062 C 292.753906 161.488281 294.25 163.699219 296.523438 164.609375 L 320.476562 174.1875 L 319.050781 177.039062 L 298.753906 177.039062 C 296.480469 177.039062 294.402344 178.324219 293.386719 180.355469 L 286.960938 193.207031 C 275.570312 178.867188 268.75 160.734375 268.75 141.035156 C 268.75 113.410156 282.15625 88.859375 302.800781 73.539062 Z M 367.132812 58.257812 L 353.25 90.664062 C 352.488281 92.4375 352.625 94.464844 353.617188 96.117188 L 371.621094 126.121094 C 372.703125 127.925781 374.660156 129.035156 376.765625 129.035156 L 388.765625 129.035156 L 388.765625 144.550781 L 378.523438 154.792969 C 377.292969 156.023438 376.65625 157.726562 376.78125 159.460938 C 376.902344 161.199219 377.773438 162.792969 379.164062 163.835938 L 399.707031 179.246094 L 395.074219 193.144531 C 394.359375 195.300781 394.917969 197.679688 396.527344 199.285156 L 404.453125 207.21875 C 390.191406 218.378906 372.242188 225.046875 352.761719 225.046875 C 330.738281 225.046875 310.675781 216.527344 295.679688 202.613281 L 302.464844 189.042969 L 322.757812 189.042969 C 325.03125 189.042969 327.109375 187.757812 328.125 185.726562 L 334.128906 173.722656 C 334.878906 172.222656 334.964844 170.472656 334.367188 168.90625 C 333.773438 167.339844 332.542969 166.089844 330.988281 165.464844 L 304.757812 154.976562 L 304.757812 135.035156 C 304.757812 132.761719 303.472656 130.683594 301.4375 129.667969 L 294.09375 125.992188 L 296.433594 118.964844 L 320.527344 128.605469 C 323.605469 129.832031 327.097656 128.339844 328.332031 125.261719 L 340.332031 95.257812 C 341.285156 92.871094 340.617188 90.144531 338.664062 88.472656 L 313.414062 66.828125 C 325.160156 60.574219 338.554688 57.023438 352.761719 57.023438 C 357.660156 57.023438 362.464844 57.449219 367.132812 58.257812 Z M 436.773438 141.035156 C 436.773438 163.566406 427.859375 184.050781 413.367188 199.152344 L 407.632812 193.421875 L 412.460938 178.9375 C 413.28125 176.484375 412.4375 173.789062 410.371094 172.242188 L 391.902344 158.390625 L 399.011719 151.277344 C 400.136719 150.152344 400.769531 148.625 400.769531 147.035156 L 400.769531 123.03125 C 400.769531 119.71875 398.082031 117.03125 394.769531 117.03125 L 380.160156 117.03125 L 365.488281 92.570312 L 378.929688 61.203125 C 412.480469 72.226562 436.773438 103.847656 436.773438 141.035156 Z M 198.84375 375.066406 L 170.632812 375.066406 C 174.625 369.832031 177.261719 363.652344 178.265625 357.0625 L 191.210938 357.0625 C 192.21875 363.652344 194.855469 369.832031 198.84375 375.066406 Z M 226.746094 390.070312 C 226.746094 391.722656 225.402344 393.070312 223.746094 393.070312 L 145.734375 393.070312 C 144.078125 393.070312 142.734375 391.722656 142.734375 390.070312 C 142.734375 388.414062 144.078125 387.066406 145.734375 387.066406 L 223.746094 387.066406 C 225.402344 387.066406 226.746094 388.414062 226.746094 390.070312 Z M 100.726562 333.0625 L 268.75 333.0625 C 268.75 339.675781 263.367188 345.0625 256.75 345.0625 L 112.730469 345.0625 C 106.109375 345.0625 100.726562 339.675781 100.726562 333.0625 Z M 112.730469 225.046875 L 256.75 225.046875 C 263.367188 225.046875 268.75 230.433594 268.75 237.046875 L 268.75 321.058594 L 100.726562 321.058594 L 100.726562 237.046875 C 100.726562 230.433594 106.109375 225.046875 112.730469 225.046875 Z M 448.773438 141.035156 C 448.773438 88.09375 405.703125 45.023438 352.761719 45.023438 C 299.820312 45.023438 256.75 88.09375 256.75 141.035156 C 256.75 191.960938 296.605469 233.746094 346.761719 236.855469 L 346.761719 339.0625 C 346.761719 342.371094 344.070312 345.0625 340.761719 345.0625 L 304.757812 345.0625 C 294.828125 345.0625 286.753906 353.136719 286.753906 363.066406 C 286.753906 372.992188 294.828125 381.066406 304.757812 381.066406 L 322.757812 381.066406 C 326.066406 381.066406 328.757812 383.761719 328.757812 387.066406 C 328.757812 390.375 326.066406 393.070312 322.757812 393.070312 L 262.75 393.070312 C 259.441406 393.070312 256.75 390.375 256.75 387.066406 L 256.75 357.0625 C 269.984375 357.0625 280.753906 346.296875 280.753906 333.0625 L 280.753906 237.046875 C 280.753906 223.8125 269.984375 213.042969 256.75 213.042969 L 112.730469 213.042969 C 99.496094 213.042969 88.726562 223.8125 88.726562 237.046875 L 88.726562 333.0625 C 88.726562 346.296875 99.496094 357.0625 112.730469 357.0625 L 166.070312 357.0625 C 164.542969 363.945312 160.4375 370.054688 154.429688 374.058594 L 152.917969 375.066406 L 145.734375 375.066406 C 137.464844 375.066406 130.734375 381.796875 130.734375 390.070312 C 130.734375 398.339844 137.464844 405.070312 145.734375 405.070312 L 223.746094 405.070312 C 232.015625 405.070312 238.746094 398.339844 238.746094 390.070312 C 238.746094 381.796875 232.015625 375.066406 223.746094 375.066406 L 216.558594 375.066406 L 215.046875 374.058594 C 209.042969 370.054688 204.9375 363.945312 203.410156 357.0625 L 244.746094 357.0625 L 244.746094 387.066406 C 244.746094 396.996094 252.824219 405.070312 262.75 405.070312 L 322.757812 405.070312 C 332.683594 405.070312 340.761719 396.996094 340.761719 387.066406 C 340.761719 377.140625 332.683594 369.066406 322.757812 369.066406 L 304.757812 369.066406 C 301.449219 369.066406 298.753906 366.371094 298.753906 363.066406 C 298.753906 359.757812 301.449219 357.0625 304.757812 357.0625 L 340.761719 357.0625 C 350.6875 357.0625 358.761719 348.988281 358.761719 339.0625 L 358.761719 236.855469 C 408.921875 233.746094 448.773438 191.960938 448.773438 141.035156 " fill-opacity="1" fill-rule="nonzero"/></g><path fill="#607bcd" d="M 184.738281 243.046875 C 201.28125 243.046875 214.742188 256.507812 214.742188 273.054688 C 214.742188 289.597656 201.28125 303.058594 184.738281 303.058594 C 168.195312 303.058594 154.734375 289.597656 154.734375 273.054688 C 154.734375 256.507812 168.195312 243.046875 184.738281 243.046875 Z M 184.738281 315.058594 C 207.902344 315.058594 226.746094 296.214844 226.746094 273.054688 C 226.746094 249.890625 207.902344 231.046875 184.738281 231.046875 C 161.578125 231.046875 142.734375 249.890625 142.734375 273.054688 C 142.734375 296.214844 161.578125 315.058594 184.738281 315.058594 " fill-opacity="1" fill-rule="nonzero"/><path fill="#607bcd" d="M 178.738281 265.648438 L 191.078125 273.054688 L 178.738281 280.457031 Z M 169.78125 296.277344 C 170.699219 296.796875 171.71875 297.054688 172.738281 297.054688 C 173.808594 297.054688 174.878906 296.769531 175.828125 296.199219 L 205.832031 278.199219 C 207.636719 277.113281 208.742188 275.164062 208.742188 273.054688 C 208.742188 270.941406 207.636719 268.992188 205.832031 267.90625 L 175.828125 249.90625 C 173.972656 248.792969 171.664062 248.765625 169.78125 249.828125 C 167.902344 250.894531 166.738281 252.886719 166.738281 255.050781 L 166.738281 291.054688 C 166.738281 293.21875 167.902344 295.214844 169.78125 296.277344 " fill-opacity="1" fill-rule="nonzero"/><g fill="#81b8c8" fill-opacity="1"><g transform="translate(450.139517, 315.602799)"><g><path d="M 50.703125 -12.375 C 52.566406 -12.375 54.125 -11.742188 55.375 -10.484375 C 56.632812 -9.234375 57.265625 -7.785156 57.265625 -6.140625 C 57.265625 -4.335938 56.632812 -2.863281 55.375 -1.71875 C 54.125 -0.570312 52.566406 0 50.703125 0 L 14.640625 0 C 12.773438 0 11.210938 -0.625 9.953125 -1.875 C 8.703125 -3.132812 8.078125 -4.695312 8.078125 -6.5625 L 8.078125 -68.796875 C 8.078125 -70.660156 8.703125 -72.21875 9.953125 -73.46875 C 11.210938 -74.726562 12.773438 -75.359375 14.640625 -75.359375 L 50.703125 -75.359375 C 52.566406 -75.359375 54.125 -74.765625 55.375 -73.578125 C 56.632812 -72.398438 57.265625 -70.875 57.265625 -69 C 57.265625 -67.207031 56.65625 -65.753906 55.4375 -64.640625 C 54.21875 -63.535156 52.640625 -62.984375 50.703125 -62.984375 L 21.53125 -62.984375 L 21.53125 -44.671875 L 45.859375 -44.671875 C 47.722656 -44.671875 49.28125 -44.078125 50.53125 -42.890625 C 51.789062 -41.710938 52.421875 -40.191406 52.421875 -38.328125 C 52.421875 -36.535156 51.8125 -35.082031 50.59375 -33.96875 C 49.375 -32.851562 47.796875 -32.296875 45.859375 -32.296875 L 21.53125 -32.296875 L 21.53125 -12.375 Z M 50.703125 -12.375 "/></g></g></g><g fill="#81b8c8" fill-opacity="1"><g transform="translate(513.856247, 315.602799)"><g><path d="M 53.609375 -79.671875 C 55.472656 -79.671875 57.015625 -79.054688 58.234375 -77.828125 C 59.460938 -76.609375 60.078125 -75.03125 60.078125 -73.09375 L 60.078125 -6.5625 C 60.078125 -4.695312 59.460938 -3.132812 58.234375 -1.875 C 57.015625 -0.625 55.472656 0 53.609375 0 C 51.742188 0 50.21875 -0.609375 49.03125 -1.828125 C 47.851562 -3.046875 47.226562 -4.585938 47.15625 -6.453125 C 45.363281 -4.378906 42.941406 -2.601562 39.890625 -1.125 C 36.835938 0.34375 33.625 1.078125 30.25 1.078125 C 25.300781 1.078125 20.816406 -0.191406 16.796875 -2.734375 C 12.773438 -5.285156 9.597656 -8.820312 7.265625 -13.34375 C 4.929688 -17.863281 3.765625 -23 3.765625 -28.75 C 3.765625 -34.488281 4.910156 -39.632812 7.203125 -44.1875 C 9.503906 -48.75 12.644531 -52.300781 16.625 -54.84375 C 20.613281 -57.394531 25.015625 -58.671875 29.828125 -58.671875 C 33.265625 -58.671875 36.488281 -58.039062 39.5 -56.78125 C 42.519531 -55.53125 45.070312 -53.9375 47.15625 -52 L 47.15625 -73.09375 C 47.15625 -74.957031 47.765625 -76.519531 48.984375 -77.78125 C 50.203125 -79.039062 51.742188 -79.671875 53.609375 -79.671875 Z M 31.859375 -10.765625 C 36.523438 -10.765625 40.328125 -12.46875 43.265625 -15.875 C 46.210938 -19.289062 47.6875 -23.582031 47.6875 -28.75 C 47.6875 -33.914062 46.210938 -38.21875 43.265625 -41.65625 C 40.328125 -45.101562 36.523438 -46.828125 31.859375 -46.828125 C 27.265625 -46.828125 23.492188 -45.101562 20.546875 -41.65625 C 17.609375 -38.21875 16.140625 -33.914062 16.140625 -28.75 C 16.140625 -23.582031 17.59375 -19.289062 20.5 -15.875 C 23.414062 -12.46875 27.203125 -10.765625 31.859375 -10.765625 Z M 31.859375 -10.765625 "/></g></g></g><g fill="#81b8c8" fill-opacity="1"><g transform="translate(583.062027, 315.602799)"><g><path d="M 49.734375 -57.59375 C 51.597656 -57.59375 53.140625 -56.960938 54.359375 -55.703125 C 55.585938 -54.453125 56.203125 -52.894531 56.203125 -51.03125 L 56.203125 -23.6875 C 56.203125 -15.9375 54.066406 -9.867188 49.796875 -5.484375 C 45.523438 -1.109375 39.441406 1.078125 31.546875 1.078125 C 23.648438 1.078125 17.582031 -1.109375 13.34375 -5.484375 C 9.113281 -9.867188 7 -15.9375 7 -23.6875 L 7 -51.03125 C 7 -52.894531 7.609375 -54.453125 8.828125 -55.703125 C 10.046875 -56.960938 11.585938 -57.59375 13.453125 -57.59375 C 15.316406 -57.59375 16.859375 -56.960938 18.078125 -55.703125 C 19.304688 -54.453125 19.921875 -52.894531 19.921875 -51.03125 L 19.921875 -23.6875 C 19.921875 -19.3125 20.890625 -16.0625 22.828125 -13.9375 C 24.765625 -11.820312 27.671875 -10.765625 31.546875 -10.765625 C 35.492188 -10.765625 38.4375 -11.820312 40.375 -13.9375 C 42.3125 -16.0625 43.28125 -19.3125 43.28125 -23.6875 L 43.28125 -51.03125 C 43.28125 -52.894531 43.890625 -54.453125 45.109375 -55.703125 C 46.328125 -56.960938 47.867188 -57.59375 49.734375 -57.59375 Z M 49.734375 -57.59375 "/></g></g></g><g fill="#81b8c8" fill-opacity="1"><g transform="translate(648.393172, 315.602799)"><g><path d="M 67.171875 -8.390625 C 67.535156 -7.460938 67.71875 -6.601562 67.71875 -5.8125 C 67.71875 -3.945312 67.109375 -2.421875 65.890625 -1.234375 C 64.671875 -0.0546875 63.269531 0.53125 61.6875 0.53125 C 60.394531 0.53125 59.226562 0.140625 58.1875 -0.640625 C 57.144531 -1.429688 56.335938 -2.507812 55.765625 -3.875 L 50.171875 -16.90625 L 18.09375 -16.90625 L 12.484375 -3.765625 C 11.984375 -2.398438 11.210938 -1.34375 10.171875 -0.59375 C 9.128906 0.15625 8 0.53125 6.78125 0.53125 C 4.914062 0.53125 3.5 0.03125 2.53125 -0.96875 C 1.5625 -1.96875 1.078125 -3.332031 1.078125 -5.0625 C 1.078125 -5.707031 1.1875 -6.390625 1.40625 -7.109375 L 28.203125 -71.484375 C 28.773438 -72.921875 29.632812 -74.03125 30.78125 -74.8125 C 31.9375 -75.601562 33.234375 -75.929688 34.671875 -75.796875 C 35.960938 -75.796875 37.160156 -75.414062 38.265625 -74.65625 C 39.378906 -73.90625 40.1875 -72.847656 40.6875 -71.484375 Z M 23.359375 -29.28125 L 44.890625 -29.28125 L 34.015625 -54.46875 Z M 23.359375 -29.28125 "/></g></g></g><g fill="#81b8c8" fill-opacity="1"><g transform="translate(719.320995, 315.602799)"><g><path d="M 36.8125 -58.671875 C 41.769531 -58.671875 46.253906 -57.394531 50.265625 -54.84375 C 54.285156 -52.300781 57.460938 -48.769531 59.796875 -44.25 C 62.128906 -39.726562 63.296875 -34.597656 63.296875 -28.859375 C 63.296875 -23.109375 62.144531 -17.953125 59.84375 -13.390625 C 57.550781 -8.835938 54.414062 -5.285156 50.4375 -2.734375 C 46.457031 -0.191406 42.0625 1.078125 37.25 1.078125 C 33.800781 1.078125 30.550781 0.378906 27.5 -1.015625 C 24.457031 -2.421875 21.929688 -4.128906 19.921875 -6.140625 L 19.921875 14.96875 C 19.921875 16.832031 19.304688 18.390625 18.078125 19.640625 C 16.859375 20.898438 15.316406 21.53125 13.453125 21.53125 C 11.585938 21.53125 10.046875 20.921875 8.828125 19.703125 C 7.609375 18.484375 7 16.90625 7 14.96875 L 7 -51.03125 C 7 -52.894531 7.609375 -54.453125 8.828125 -55.703125 C 10.046875 -56.960938 11.585938 -57.59375 13.453125 -57.59375 C 15.316406 -57.59375 16.859375 -56.960938 18.078125 -55.703125 C 19.304688 -54.453125 19.921875 -52.894531 19.921875 -51.03125 L 19.921875 -50.59375 C 21.640625 -52.75 24.039062 -54.632812 27.125 -56.25 C 30.21875 -57.863281 33.445312 -58.671875 36.8125 -58.671875 Z M 35.203125 -10.765625 C 39.796875 -10.765625 43.5625 -12.484375 46.5 -15.921875 C 49.445312 -19.367188 50.921875 -23.679688 50.921875 -28.859375 C 50.921875 -34.023438 49.46875 -38.3125 46.5625 -41.71875 C 43.65625 -45.125 39.867188 -46.828125 35.203125 -46.828125 C 30.535156 -46.828125 26.726562 -45.125 23.78125 -41.71875 C 20.84375 -38.3125 19.375 -34.023438 19.375 -28.859375 C 19.375 -23.679688 20.84375 -19.367188 23.78125 -15.921875 C 26.726562 -12.484375 30.535156 -10.765625 35.203125 -10.765625 Z M 35.203125 -10.765625 "/></g></g></g><g fill="#81b8c8" fill-opacity="1"><g transform="translate(788.526754, 315.602799)"><g><path d="M 36.8125 -58.671875 C 41.769531 -58.671875 46.253906 -57.394531 50.265625 -54.84375 C 54.285156 -52.300781 57.460938 -48.769531 59.796875 -44.25 C 62.128906 -39.726562 63.296875 -34.597656 63.296875 -28.859375 C 63.296875 -23.109375 62.144531 -17.953125 59.84375 -13.390625 C 57.550781 -8.835938 54.414062 -5.285156 50.4375 -2.734375 C 46.457031 -0.191406 42.0625 1.078125 37.25 1.078125 C 33.800781 1.078125 30.550781 0.378906 27.5 -1.015625 C 24.457031 -2.421875 21.929688 -4.128906 19.921875 -6.140625 L 19.921875 14.96875 C 19.921875 16.832031 19.304688 18.390625 18.078125 19.640625 C 16.859375 20.898438 15.316406 21.53125 13.453125 21.53125 C 11.585938 21.53125 10.046875 20.921875 8.828125 19.703125 C 7.609375 18.484375 7 16.90625 7 14.96875 L 7 -51.03125 C 7 -52.894531 7.609375 -54.453125 8.828125 -55.703125 C 10.046875 -56.960938 11.585938 -57.59375 13.453125 -57.59375 C 15.316406 -57.59375 16.859375 -56.960938 18.078125 -55.703125 C 19.304688 -54.453125 19.921875 -52.894531 19.921875 -51.03125 L 19.921875 -50.59375 C 21.640625 -52.75 24.039062 -54.632812 27.125 -56.25 C 30.21875 -57.863281 33.445312 -58.671875 36.8125 -58.671875 Z M 35.203125 -10.765625 C 39.796875 -10.765625 43.5625 -12.484375 46.5 -15.921875 C 49.445312 -19.367188 50.921875 -23.679688 50.921875 -28.859375 C 50.921875 -34.023438 49.46875 -38.3125 46.5625 -41.71875 C 43.65625 -45.125 39.867188 -46.828125 35.203125 -46.828125 C 30.535156 -46.828125 26.726562 -45.125 23.78125 -41.71875 C 20.84375 -38.3125 19.375 -34.023438 19.375 -28.859375 C 19.375 -23.679688 20.84375 -19.367188 23.78125 -15.921875 C 26.726562 -12.484375 30.535156 -10.765625 35.203125 -10.765625 Z M 35.203125 -10.765625 "/></g></g></g><g fill="#607bcd" fill-opacity="1"><g transform="translate(546.696793, 394.782523)"><g><path d="M 14.84375 -27.71875 C 17.320312 -27.71875 19.453125 -27.101562 21.234375 -25.875 C 23.023438 -24.644531 24.382812 -22.976562 25.3125 -20.875 C 26.25 -18.78125 26.71875 -16.441406 26.71875 -13.859375 C 26.71875 -11.273438 26.25 -8.929688 25.3125 -6.828125 C 24.382812 -4.734375 23.023438 -3.070312 21.234375 -1.84375 C 19.453125 -0.613281 17.320312 0 14.84375 0 L 5.390625 0 C 4.703125 0 4.125 -0.226562 3.65625 -0.6875 C 3.195312 -1.15625 2.96875 -1.734375 2.96875 -2.421875 L 2.96875 -25.296875 C 2.96875 -25.984375 3.195312 -26.554688 3.65625 -27.015625 C 4.125 -27.484375 4.703125 -27.71875 5.390625 -27.71875 Z M 14.453125 -4.546875 C 16.828125 -4.546875 18.609375 -5.421875 19.796875 -7.171875 C 20.984375 -8.929688 21.578125 -11.160156 21.578125 -13.859375 C 21.578125 -16.546875 20.972656 -18.765625 19.765625 -20.515625 C 18.566406 -22.273438 16.796875 -23.15625 14.453125 -23.15625 L 7.921875 -23.15625 L 7.921875 -4.546875 Z M 14.453125 -4.546875 "/></g></g></g><g fill="#607bcd" fill-opacity="1"><g transform="translate(579.940961, 394.782523)"><g><path d="M 22.921875 -10.578125 C 22.921875 -8.460938 22.445312 -6.566406 21.5 -4.890625 C 20.550781 -3.210938 19.25 -1.910156 17.59375 -0.984375 C 15.945312 -0.0664062 14.132812 0.390625 12.15625 0.390625 C 10.144531 0.390625 8.320312 -0.0664062 6.6875 -0.984375 C 5.050781 -1.910156 3.757812 -3.210938 2.8125 -4.890625 C 1.863281 -6.566406 1.390625 -8.460938 1.390625 -10.578125 C 1.390625 -12.679688 1.863281 -14.570312 2.8125 -16.25 C 3.757812 -17.925781 5.050781 -19.234375 6.6875 -20.171875 C 8.320312 -21.109375 10.144531 -21.578125 12.15625 -21.578125 C 14.132812 -21.578125 15.945312 -21.109375 17.59375 -20.171875 C 19.25 -19.234375 20.550781 -17.925781 21.5 -16.25 C 22.445312 -14.570312 22.921875 -12.679688 22.921875 -10.578125 Z M 18.171875 -10.578125 C 18.171875 -11.867188 17.898438 -13.019531 17.359375 -14.03125 C 16.816406 -15.050781 16.085938 -15.835938 15.171875 -16.390625 C 14.265625 -16.941406 13.257812 -17.21875 12.15625 -17.21875 C 11.050781 -17.21875 10.039062 -16.941406 9.125 -16.390625 C 8.21875 -15.835938 7.492188 -15.050781 6.953125 -14.03125 C 6.410156 -13.019531 6.140625 -11.867188 6.140625 -10.578125 C 6.140625 -9.273438 6.410156 -8.125 6.953125 -7.125 C 7.492188 -6.125 8.21875 -5.34375 9.125 -4.78125 C 10.039062 -4.226562 11.050781 -3.953125 12.15625 -3.953125 C 13.257812 -3.953125 14.265625 -4.226562 15.171875 -4.78125 C 16.085938 -5.34375 16.816406 -6.125 17.359375 -7.125 C 17.898438 -8.125 18.171875 -9.273438 18.171875 -10.578125 Z M 18.171875 -10.578125 "/></g></g></g><g fill="#607bcd" fill-opacity="1"><g transform="translate(609.188433, 394.782523)"><g><path d="M 11.796875 -21.578125 C 14.046875 -21.578125 15.851562 -21.226562 17.21875 -20.53125 C 18.59375 -19.832031 19.28125 -18.898438 19.28125 -17.734375 C 19.28125 -17.148438 19.109375 -16.640625 18.765625 -16.203125 C 18.421875 -15.773438 17.972656 -15.5625 17.421875 -15.5625 C 16.992188 -15.5625 16.648438 -15.617188 16.390625 -15.734375 C 16.128906 -15.859375 15.875 -16.019531 15.625 -16.21875 C 15.375 -16.414062 15.128906 -16.578125 14.890625 -16.703125 C 14.617188 -16.835938 14.226562 -16.957031 13.71875 -17.0625 C 13.207031 -17.164062 12.789062 -17.21875 12.46875 -17.21875 C 10.488281 -17.21875 8.9375 -16.601562 7.8125 -15.375 C 6.695312 -14.15625 6.140625 -12.554688 6.140625 -10.578125 C 6.140625 -8.671875 6.707031 -7.085938 7.84375 -5.828125 C 8.976562 -4.578125 10.425781 -3.953125 12.1875 -3.953125 C 13.488281 -3.953125 14.453125 -4.113281 15.078125 -4.4375 C 15.242188 -4.507812 15.460938 -4.644531 15.734375 -4.84375 C 16.015625 -5.039062 16.269531 -5.191406 16.5 -5.296875 C 16.738281 -5.410156 17.03125 -5.46875 17.375 -5.46875 C 18.039062 -5.46875 18.5625 -5.253906 18.9375 -4.828125 C 19.320312 -4.410156 19.515625 -3.867188 19.515625 -3.203125 C 19.515625 -2.566406 19.144531 -1.972656 18.40625 -1.421875 C 17.664062 -0.867188 16.6875 -0.425781 15.46875 -0.09375 C 14.257812 0.226562 12.96875 0.390625 11.59375 0.390625 C 9.5625 0.390625 7.773438 -0.0820312 6.234375 -1.03125 C 4.691406 -1.976562 3.5 -3.289062 2.65625 -4.96875 C 1.8125 -6.644531 1.390625 -8.515625 1.390625 -10.578125 C 1.390625 -12.710938 1.828125 -14.609375 2.703125 -16.265625 C 3.585938 -17.929688 4.820312 -19.234375 6.40625 -20.171875 C 8 -21.109375 9.796875 -21.578125 11.796875 -21.578125 Z M 11.796875 -21.578125 "/></g></g></g><g fill="#607bcd" fill-opacity="1"><g transform="translate(634.518397, 394.782523)"><g><path d="M 21.578125 -11.09375 C 21.546875 -10.457031 21.289062 -9.941406 20.8125 -9.546875 C 20.34375 -9.148438 19.789062 -8.953125 19.15625 -8.953125 L 6.09375 -8.953125 C 6.414062 -7.390625 7.144531 -6.164062 8.28125 -5.28125 C 9.414062 -4.394531 10.691406 -3.953125 12.109375 -3.953125 C 13.191406 -3.953125 14.035156 -4.050781 14.640625 -4.25 C 15.253906 -4.445312 15.738281 -4.65625 16.09375 -4.875 C 16.445312 -5.101562 16.691406 -5.257812 16.828125 -5.34375 C 17.304688 -5.582031 17.753906 -5.703125 18.171875 -5.703125 C 18.722656 -5.703125 19.195312 -5.503906 19.59375 -5.109375 C 19.988281 -4.710938 20.1875 -4.25 20.1875 -3.71875 C 20.1875 -3.007812 19.816406 -2.363281 19.078125 -1.78125 C 18.335938 -1.175781 17.347656 -0.660156 16.109375 -0.234375 C 14.867188 0.179688 13.617188 0.390625 12.359375 0.390625 C 10.140625 0.390625 8.203125 -0.0664062 6.546875 -0.984375 C 4.898438 -1.910156 3.628906 -3.1875 2.734375 -4.8125 C 1.835938 -6.4375 1.390625 -8.265625 1.390625 -10.296875 C 1.390625 -12.566406 1.863281 -14.554688 2.8125 -16.265625 C 3.757812 -17.984375 5.007812 -19.296875 6.5625 -20.203125 C 8.125 -21.117188 9.789062 -21.578125 11.5625 -21.578125 C 13.300781 -21.578125 14.941406 -21.101562 16.484375 -20.15625 C 18.035156 -19.207031 19.269531 -17.925781 20.1875 -16.3125 C 21.113281 -14.695312 21.578125 -12.957031 21.578125 -11.09375 Z M 11.5625 -17.21875 C 8.5 -17.21875 6.691406 -15.78125 6.140625 -12.90625 L 16.515625 -12.90625 L 16.515625 -13.1875 C 16.410156 -14.289062 15.867188 -15.238281 14.890625 -16.03125 C 13.910156 -16.820312 12.800781 -17.21875 11.5625 -17.21875 Z M 11.5625 -17.21875 "/></g></g></g><g fill="#607bcd" fill-opacity="1"><g transform="translate(662.420484, 394.782523)"><g><path d="M 13.890625 -21.578125 C 16.585938 -21.578125 18.453125 -20.773438 19.484375 -19.171875 C 20.515625 -17.578125 21.03125 -15.367188 21.03125 -12.546875 L 21.03125 -2.421875 C 21.03125 -1.734375 20.800781 -1.15625 20.34375 -0.6875 C 19.894531 -0.226562 19.332031 0 18.65625 0 C 17.96875 0 17.394531 -0.226562 16.9375 -0.6875 C 16.488281 -1.15625 16.265625 -1.734375 16.265625 -2.421875 L 16.265625 -12.546875 C 16.265625 -14.003906 15.960938 -15.144531 15.359375 -15.96875 C 14.753906 -16.800781 13.710938 -17.21875 12.234375 -17.21875 C 10.703125 -17.21875 9.5 -16.773438 8.625 -15.890625 C 7.757812 -15.015625 7.328125 -13.898438 7.328125 -12.546875 L 7.328125 -2.421875 C 7.328125 -1.734375 7.101562 -1.15625 6.65625 -0.6875 C 6.207031 -0.226562 5.640625 0 4.953125 0 C 4.265625 0 3.695312 -0.226562 3.25 -0.6875 C 2.800781 -1.15625 2.578125 -1.734375 2.578125 -2.421875 L 2.578125 -18.765625 C 2.578125 -19.453125 2.800781 -20.023438 3.25 -20.484375 C 3.695312 -20.953125 4.265625 -21.1875 4.953125 -21.1875 C 5.640625 -21.1875 6.207031 -20.953125 6.65625 -20.484375 C 7.101562 -20.023438 7.328125 -19.453125 7.328125 -18.765625 L 7.328125 -18.09375 C 8.035156 -19.039062 8.960938 -19.859375 10.109375 -20.546875 C 11.265625 -21.234375 12.523438 -21.578125 13.890625 -21.578125 Z M 13.890625 -21.578125 "/></g></g></g><g fill="#607bcd" fill-opacity="1"><g transform="translate(690.955689, 394.782523)"><g><path d="M 12.78125 -4.46875 C 13.15625 -4.46875 13.492188 -4.289062 13.796875 -3.9375 C 14.097656 -3.582031 14.25 -3.113281 14.25 -2.53125 C 14.25 -1.820312 13.859375 -1.222656 13.078125 -0.734375 C 12.304688 -0.242188 11.429688 0 10.453125 0 C 8.816406 0 7.4375 -0.347656 6.3125 -1.046875 C 5.1875 -1.742188 4.625 -3.226562 4.625 -5.5 L 4.625 -16.4375 L 2.8125 -16.4375 C 2.175781 -16.4375 1.644531 -16.644531 1.21875 -17.0625 C 0.800781 -17.488281 0.59375 -18.019531 0.59375 -18.65625 C 0.59375 -19.257812 0.800781 -19.765625 1.21875 -20.171875 C 1.644531 -20.578125 2.175781 -20.78125 2.8125 -20.78125 L 4.625 -20.78125 L 4.625 -23.328125 C 4.625 -24.003906 4.851562 -24.570312 5.3125 -25.03125 C 5.78125 -25.5 6.359375 -25.734375 7.046875 -25.734375 C 7.703125 -25.734375 8.253906 -25.5 8.703125 -25.03125 C 9.160156 -24.570312 9.390625 -24.003906 9.390625 -23.328125 L 9.390625 -20.78125 L 12.1875 -20.78125 C 12.820312 -20.78125 13.347656 -20.566406 13.765625 -20.140625 C 14.191406 -19.722656 14.40625 -19.195312 14.40625 -18.5625 C 14.40625 -17.957031 14.191406 -17.453125 13.765625 -17.046875 C 13.347656 -16.640625 12.820312 -16.4375 12.1875 -16.4375 L 9.390625 -16.4375 L 9.390625 -5.703125 C 9.390625 -5.148438 9.53125 -4.75 9.8125 -4.5 C 10.101562 -4.25 10.5 -4.125 11 -4.125 C 11.21875 -4.125 11.507812 -4.175781 11.875 -4.28125 C 12.195312 -4.40625 12.5 -4.46875 12.78125 -4.46875 Z M 12.78125 -4.46875 "/></g></g></g><g fill="#607bcd" fill-opacity="1"><g transform="translate(712.091123, 394.782523)"><g><path d="M 21.578125 -11.09375 C 21.546875 -10.457031 21.289062 -9.941406 20.8125 -9.546875 C 20.34375 -9.148438 19.789062 -8.953125 19.15625 -8.953125 L 6.09375 -8.953125 C 6.414062 -7.390625 7.144531 -6.164062 8.28125 -5.28125 C 9.414062 -4.394531 10.691406 -3.953125 12.109375 -3.953125 C 13.191406 -3.953125 14.035156 -4.050781 14.640625 -4.25 C 15.253906 -4.445312 15.738281 -4.65625 16.09375 -4.875 C 16.445312 -5.101562 16.691406 -5.257812 16.828125 -5.34375 C 17.304688 -5.582031 17.753906 -5.703125 18.171875 -5.703125 C 18.722656 -5.703125 19.195312 -5.503906 19.59375 -5.109375 C 19.988281 -4.710938 20.1875 -4.25 20.1875 -3.71875 C 20.1875 -3.007812 19.816406 -2.363281 19.078125 -1.78125 C 18.335938 -1.175781 17.347656 -0.660156 16.109375 -0.234375 C 14.867188 0.179688 13.617188 0.390625 12.359375 0.390625 C 10.140625 0.390625 8.203125 -0.0664062 6.546875 -0.984375 C 4.898438 -1.910156 3.628906 -3.1875 2.734375 -4.8125 C 1.835938 -6.4375 1.390625 -8.265625 1.390625 -10.296875 C 1.390625 -12.566406 1.863281 -14.554688 2.8125 -16.265625 C 3.757812 -17.984375 5.007812 -19.296875 6.5625 -20.203125 C 8.125 -21.117188 9.789062 -21.578125 11.5625 -21.578125 C 13.300781 -21.578125 14.941406 -21.101562 16.484375 -20.15625 C 18.035156 -19.207031 19.269531 -17.925781 20.1875 -16.3125 C 21.113281 -14.695312 21.578125 -12.957031 21.578125 -11.09375 Z M 11.5625 -17.21875 C 8.5 -17.21875 6.691406 -15.78125 6.140625 -12.90625 L 16.515625 -12.90625 L 16.515625 -13.1875 C 16.410156 -14.289062 15.867188 -15.238281 14.890625 -16.03125 C 13.910156 -16.820312 12.800781 -17.21875 11.5625 -17.21875 Z M 11.5625 -17.21875 "/></g></g></g><g fill="#607bcd" fill-opacity="1"><g transform="translate(739.99321, 394.782523)"><g><path d="M 1.34375 -3.28125 C 1.101562 -3.601562 0.984375 -4 0.984375 -4.46875 C 0.984375 -5.15625 1.328125 -5.738281 2.015625 -6.21875 C 2.390625 -6.457031 2.773438 -6.578125 3.171875 -6.578125 C 3.722656 -6.578125 4.25 -6.320312 4.75 -5.8125 C 5.539062 -5 6.363281 -4.394531 7.21875 -4 C 8.082031 -3.601562 9.117188 -3.40625 10.328125 -3.40625 C 12.390625 -3.488281 13.421875 -4.265625 13.421875 -5.734375 C 13.421875 -6.503906 13.070312 -7.085938 12.375 -7.484375 C 11.675781 -7.878906 10.585938 -8.273438 9.109375 -8.671875 C 7.578125 -9.085938 6.328125 -9.507812 5.359375 -9.9375 C 4.398438 -10.363281 3.570312 -11.003906 2.875 -11.859375 C 2.175781 -12.710938 1.828125 -13.867188 1.828125 -15.328125 C 1.828125 -16.585938 2.1875 -17.6875 2.90625 -18.625 C 3.632812 -19.5625 4.582031 -20.285156 5.75 -20.796875 C 6.925781 -21.316406 8.175781 -21.578125 9.5 -21.578125 C 10.84375 -21.578125 12.1875 -21.328125 13.53125 -20.828125 C 14.882812 -20.328125 15.941406 -19.585938 16.703125 -18.609375 C 17.046875 -18.179688 17.21875 -17.707031 17.21875 -17.1875 C 17.21875 -16.570312 16.96875 -16.066406 16.46875 -15.671875 C 16.101562 -15.390625 15.679688 -15.25 15.203125 -15.25 C 14.617188 -15.25 14.144531 -15.429688 13.78125 -15.796875 C 13.300781 -16.378906 12.6875 -16.84375 11.9375 -17.1875 C 11.1875 -17.53125 10.335938 -17.703125 9.390625 -17.703125 C 7.378906 -17.703125 6.375 -16.972656 6.375 -15.515625 C 6.375 -14.941406 6.554688 -14.472656 6.921875 -14.109375 C 7.296875 -13.753906 7.765625 -13.476562 8.328125 -13.28125 C 8.898438 -13.082031 9.703125 -12.835938 10.734375 -12.546875 C 12.160156 -12.148438 13.347656 -11.738281 14.296875 -11.3125 C 15.242188 -10.894531 16.046875 -10.25 16.703125 -9.375 C 17.367188 -8.507812 17.703125 -7.363281 17.703125 -5.9375 C 17.703125 -4.644531 17.316406 -3.515625 16.546875 -2.546875 C 15.785156 -1.585938 14.800781 -0.859375 13.59375 -0.359375 C 12.394531 0.140625 11.160156 0.390625 9.890625 0.390625 C 8.148438 0.390625 6.523438 0.101562 5.015625 -0.46875 C 3.515625 -1.050781 2.289062 -1.988281 1.34375 -3.28125 Z M 1.34375 -3.28125 "/></g></g></g></svg>