<?xml version="1.0" standalone="no"?>
<!DOCTYPE svg PUBLIC "-//W3C//DTD SVG 20010904//EN"
 "http://www.w3.org/TR/2001/REC-SVG-20010904/DTD/svg10.dtd">
<svg version="1.0" xmlns="http://www.w3.org/2000/svg"
 width="500.000000pt" height="500.000000pt" viewBox="0 0 500.000000 500.000000"
 preserveAspectRatio="xMidYMid meet">

<g transform="translate(0.000000,500.000000) scale(0.100000,-0.100000)"
fill="#000000" stroke="none">
<path d="M1867 3547 c-46 -13 -43 -33 4 -30 105 6 152 13 167 25 13 11 14 11
7 -2 -5 -8 -10 -19 -11 -25 -1 -5 -14 -39 -29 -73 -20 -50 -23 -67 -14 -78 6
-8 9 -14 5 -14 -3 0 6 -18 20 -40 21 -32 30 -38 41 -29 11 10 11 15 0 33 -43
66 -43 60 -13 130 16 36 31 66 35 66 3 -1 17 -7 31 -15 39 -22 46 -18 19 13
-24 27 -23 27 8 -2 18 -16 30 -34 26 -39 -3 -6 -1 -7 4 -4 6 4 16 0 23 -9 7
-8 19 -13 27 -10 8 4 11 1 7 -5 -3 -6 6 -24 22 -40 15 -16 25 -29 22 -29 -4 0
4 -26 17 -57 14 -35 29 -57 37 -55 10 3 11 1 1 -9 -7 -7 -13 -37 -13 -66 0
-65 -23 -135 -63 -190 -24 -33 -33 -40 -44 -32 -15 13 -17 47 -3 69 13 21 -28
64 -46 49 -10 -8 -11 -15 -1 -30 9 -14 9 -26 0 -48 -9 -25 -8 -32 8 -47 10 -9
17 -26 16 -37 -4 -34 18 -29 62 14 53 52 81 107 97 188 17 91 3 174 -40 221
-17 19 -21 26 -8 16 12 -11 22 -16 22 -12 0 14 -49 83 -81 112 -34 31 -119 88
-119 80 0 -3 -16 2 -35 10 -39 16 -151 17 -208 1z m169 -229 l29 -33 -32 29
c-31 28 -38 36 -30 36 2 0 16 -15 33 -32z"/>
<path d="M1770 3498 c-79 -53 -126 -119 -156 -217 -16 -52 -19 -147 -5 -156
16 -9 23 13 32 92 5 42 17 94 28 116 16 33 18 44 8 56 -10 14 -10 14 4 3 14
-10 19 -8 33 13 9 13 27 32 41 41 24 16 26 15 71 -25 37 -33 50 -39 61 -29 11
9 10 4 -2 -18 -8 -16 -20 -42 -25 -57 -8 -21 -16 -28 -33 -26 -12 2 -28 0 -34
-4 -9 -6 -11 -3 -7 7 3 9 2 16 -2 17 -5 0 -20 3 -34 5 -23 4 -28 -1 -42 -41
l-17 -46 24 -11 c21 -10 25 -18 25 -58 0 -52 6 -59 63 -79 31 -10 41 -10 55 1
16 12 16 11 2 -7 -8 -11 -28 -32 -45 -47 l-30 -27 36 -1 c28 0 40 6 53 25 27
41 21 61 -27 79 -23 9 -48 16 -55 16 -8 0 -12 17 -12 50 0 38 -4 52 -18 59
-13 7 -23 6 -31 -2 -7 -7 -5 3 4 21 16 31 34 40 49 25 4 -5 11 -8 14 -9 4 0
19 -6 35 -14 15 -7 28 -11 30 -9 2 2 16 35 32 73 l28 69 -53 47 c-45 40 -52
51 -42 63 10 11 10 17 0 25 -10 8 -25 2 -58 -20z"/>
<path d="M2055 3270 c-10 -16 9 -33 30 -28 16 3 15 5 -3 21 -14 13 -22 15 -27
7z"/>
<path d="M2115 3239 l40 -40 3 32 c4 36 -9 49 -53 49 l-29 0 39 -41z"/>
<path d="M2120 3198 c0 -14 -11 -37 -25 -52 -14 -15 -25 -29 -25 -31 0 -2 14
-13 31 -26 24 -16 33 -19 42 -10 9 10 7 16 -7 27 -19 14 -19 14 2 37 27 29 27
39 2 62 -19 18 -20 17 -20 -7z"/>
<path d="M1621 3116 c-34 -41 109 -246 172 -246 14 0 27 -6 30 -14 7 -19 116
-44 125 -29 5 7 11 6 20 -3 7 -8 8 -14 2 -14 -6 0 -10 -36 -10 -96 0 -86 2
-95 16 -84 11 10 15 32 14 89 -1 42 -1 82 -1 89 1 7 14 12 31 12 35 0 160 48
160 61 0 20 -28 18 -85 -5 -33 -13 -85 -25 -115 -27 -30 -1 -61 -7 -68 -12 -9
-7 -11 -6 -7 5 4 10 -6 18 -36 27 -61 18 -119 58 -119 81 0 11 14 35 31 55 31
35 31 35 8 35 -30 0 -43 -9 -58 -37 -6 -13 -15 -23 -20 -23 -12 0 -61 95 -61
118 0 27 -15 36 -29 18z"/>
<path d="M983 2888 c-12 -6 -27 -23 -33 -38 -15 -35 -9 -138 8 -153 11 -9 14
-5 12 18 -5 66 1 104 18 125 17 22 22 22 242 21 220 0 239 2 240 32 0 14 -64
7 -84 -10 -20 -17 -20 -17 -7 0 12 15 10 17 -19 17 -29 0 -31 -2 -19 -17 13
-17 12 -17 -7 0 -18 15 -41 17 -158 16 -127 0 -136 -2 -124 -17 11 -15 10 -15
-8 1 -23 19 -30 20 -61 5z"/>
<path d="M1497 2893 c-4 -3 -7 -13 -7 -21 0 -12 11 -14 65 -8 44 4 65 3 65 -4
0 -7 6 -6 14 2 13 11 13 15 -2 26 -19 14 -68 16 -77 2 -3 -5 -11 -10 -16 -10
-6 0 -7 5 -4 10 7 11 -28 14 -38 3z"/>
<path d="M1648 2833 c-2 -5 -2 -61 0 -126 3 -102 5 -117 18 -106 21 18 20 204
-2 213 -8 3 -12 10 -9 16 3 5 4 10 1 10 -3 0 -6 -3 -8 -7z"/>
<path d="M1235 2807 c-26 -14 -48 -37 -62 -67 -26 -51 -31 -89 -10 -71 8 6 16
9 18 6 3 -2 5 4 6 15 3 31 34 70 73 90 20 10 42 26 49 34 12 14 10 16 -10 16
-13 0 -42 -10 -64 -23z"/>
<path d="M1315 2810 c-18 -19 -17 -20 7 -20 44 0 92 -41 103 -88 11 -43 11
-43 29 -23 18 19 17 21 -5 63 -15 25 -40 51 -64 65 -49 28 -48 28 -70 3z"/>
<path d="M2807 2804 c-4 -4 -7 -26 -7 -49 0 -46 -7 -59 -24 -46 -37 28 -104
15 -131 -26 -24 -36 -23 -108 2 -141 28 -38 83 -51 119 -28 20 14 28 15 34 6
5 -7 15 -10 24 -7 14 6 16 25 14 148 -3 133 -10 164 -31 143z m-38 -131 c32
-27 37 -73 11 -106 -42 -54 -114 -23 -114 50 0 61 58 92 103 56z"/>
<path d="M2397 2783 c-4 -3 -7 -66 -7 -139 0 -150 -4 -144 90 -144 67 0 90 7
90 26 0 9 -19 14 -67 16 l-68 3 -3 42 -3 42 58 3 c46 2 59 7 61 21 3 15 -5 17
-57 17 l-61 0 0 40 0 39 67 3 c55 2 68 6 71 21 3 15 -6 17 -81 17 -46 0 -87
-3 -90 -7z"/>
<path d="M3196 2655 c-31 -75 -54 -140 -51 -146 11 -18 25 -9 39 26 l15 35 70
0 c54 0 71 -3 71 -14 0 -8 9 -24 19 -37 18 -22 20 -23 27 -6 9 25 -96 271
-117 275 -12 2 -31 -33 -73 -133z m94 19 c11 -26 20 -50 20 -55 0 -5 -21 -9
-46 -9 -33 0 -45 4 -41 13 28 70 40 97 43 97 2 0 12 -21 24 -46z"/>
<path d="M1257 2753 c-13 -12 -7 -71 8 -83 13 -10 15 -9 15 9 0 24 3 25 33 10
32 -17 32 -17 7 -37 -18 -15 -20 -20 -9 -29 11 -8 23 -5 52 13 20 13 37 28 37
32 0 5 -17 18 -37 30 -21 12 -52 31 -69 42 -17 11 -34 17 -37 13z"/>
<path d="M3525 2716 c-22 -9 -35 -10 -48 -2 -29 18 -37 -10 -37 -141 0 -128 4
-153 25 -153 17 0 25 23 25 71 0 39 0 40 22 25 35 -25 76 -20 108 12 58 58 44
159 -26 188 -39 16 -32 16 -69 0z m64 -43 c32 -27 37 -73 11 -106 -42 -54
-114 -23 -114 50 0 61 58 92 103 56z"/>
<path d="M3796 2715 c-20 -11 -33 -12 -40 -5 -5 5 -16 10 -23 10 -10 0 -13
-34 -13 -151 0 -138 1 -150 18 -147 13 2 18 15 20 55 l3 51 27 -14 c40 -21 68
-17 102 14 61 54 47 158 -25 188 -41 17 -34 17 -69 -1z m73 -51 c41 -52 14
-124 -46 -124 -39 0 -63 27 -63 72 0 72 68 104 109 52z"/>
<path d="M2910 2638 c0 -97 13 -124 64 -134 42 -7 71 1 96 29 17 17 20 35 20
105 0 74 -2 83 -17 80 -15 -3 -19 -16 -21 -78 -3 -83 -12 -100 -52 -100 -40 0
-49 17 -52 100 -2 62 -6 75 -20 78 -16 3 -18 -6 -18 -80z"/>
<path d="M940 2575 c0 -112 2 -126 15 -115 12 10 15 36 15 115 0 79 -3 105
-15 115 -13 11 -15 -3 -15 -115z"/>
<path d="M1448 2663 c-10 -11 -18 -25 -18 -31 0 -6 -12 -25 -26 -42 -28 -32
-23 -57 9 -44 21 8 59 87 55 115 -3 21 -3 21 -20 2z"/>
<path d="M1163 2658 c-20 -33 26 -108 83 -136 31 -14 36 -15 50 0 15 14 13 17
-20 28 -37 12 -86 65 -86 93 0 21 -17 30 -27 15z"/>
<path d="M1250 2627 c0 -50 10 -58 45 -32 19 15 18 16 -13 47 l-32 33 0 -48z"/>
<path d="M1972 2618 c-17 -17 -15 -73 3 -88 13 -11 15 -5 15 44 0 31 -1 56 -3
56 -2 0 -8 -5 -15 -12z"/>
<path d="M1661 2586 c-9 -10 -8 -16 4 -26 13 -11 15 -8 15 14 0 30 -3 32 -19
12z"/>
<path d="M1332 2540 c-18 -11 -32 -22 -32 -25 0 -11 57 -4 74 8 15 11 16 15 4
25 -11 9 -21 7 -46 -8z"/>
<path d="M1648 2518 l-3 -43 -50 -3 c-28 -2 -59 -11 -70 -20 -19 -16 -19 -16
-6 1 12 15 10 17 -19 17 -29 0 -31 -2 -19 -17 13 -17 13 -17 -7 0 -17 14 -40
17 -119 17 -79 0 -102 -3 -119 -17 -20 -17 -20 -17 -7 0 12 15 11 17 -14 17
-25 0 -26 -2 -14 -17 13 -17 13 -17 -7 0 -31 26 -214 25 -238 -2 -11 -12 -14
-21 -7 -26 6 -3 11 -12 11 -18 0 -7 -4 -6 -10 3 -7 11 -10 12 -10 2 0 -17 55
-72 72 -72 10 0 9 3 -2 10 -9 6 -10 10 -3 10 6 0 15 -4 18 -10 12 -19 91 -12
111 11 l19 21 -82 -4 c-51 -2 -81 1 -80 7 1 6 -3 9 -8 8 -6 -1 -11 7 -11 18 0
18 8 19 116 19 63 0 183 1 265 1 264 0 295 -1 295 -10 0 -20 -33 -41 -62 -41
-30 0 -31 0 -13 -20 25 -27 41 -25 76 9 26 27 29 35 29 99 0 48 -4 73 -14 81
-12 11 -15 6 -18 -31z"/>
<path d="M1960 2468 c0 -36 -5 -69 -12 -76 -7 -7 -32 -12 -57 -12 -43 0 -44 0
-26 -20 23 -26 65 -26 99 1 23 18 26 27 26 84 0 43 -5 66 -15 75 -13 11 -15 4
-15 -52z"/>
<path d="M1145 2360 c-18 -20 -17 -20 38 -20 64 0 71 -10 36 -54 -15 -19 -30
-26 -55 -26 -24 0 -34 -5 -34 -16 0 -8 -4 -12 -10 -9 -6 4 -10 -8 -10 -30 0
-28 5 -37 23 -44 26 -10 323 -15 338 -6 7 5 6 11 -2 21 -18 22 -196 20 -223
-3 -20 -17 -20 -17 -6 0 13 18 11 19 -26 17 -64 -3 -74 -1 -74 18 0 15 9 17
71 14 57 -3 74 0 91 15 20 18 20 18 -15 23 l-36 5 17 35 c9 19 20 37 25 39 4
1 1 12 -9 22 -25 27 -114 27 -139 -1z"/>
<path d="M1291 2364 c7 -9 23 -20 36 -25 13 -5 23 -15 23 -24 0 -22 21 -18 27
5 3 11 11 20 18 20 6 0 20 9 30 20 18 20 17 20 -65 20 -75 0 -81 -2 -69 -16z"/>
<path d="M1435 2360 c-18 -20 -17 -20 47 -20 l66 0 4 -75 c5 -109 6 -110 182
-110 127 0 146 2 165 19 20 18 29 65 15 79 -11 11 -35 -6 -30 -22 11 -32 -9
-43 -74 -42 -57 1 -61 -1 -49 -17 13 -16 12 -16 -7 1 -15 12 -38 17 -88 17
-60 0 -69 2 -73 20 -5 17 -8 18 -22 8 -13 -10 -12 -9 2 8 26 31 23 105 -6 132
-31 30 -106 31 -132 2z"/>
<path d="M1746 2359 c-33 -26 -35 -71 -4 -93 25 -18 133 -22 143 -7 9 16 -30
31 -79 31 -49 0 -65 12 -46 35 8 10 31 15 63 15 49 0 50 0 32 20 -24 26 -75
26 -109 -1z"/>
<path d="M1375 2300 c-11 -17 55 -80 83 -80 19 0 23 -4 19 -20 -7 -29 19 -47
32 -21 6 11 11 24 11 30 0 20 -40 51 -65 51 -15 0 -36 11 -50 25 -15 17 -26
22 -30 15z"/>
<path d="M1354 2263 c-12 -2 -30 -13 -40 -24 -17 -19 -16 -19 46 -19 l63 0
-23 25 c-13 14 -24 24 -24 24 -1 -1 -11 -4 -22 -6z"/>
</g>
</svg>
